<?xml version="1.0" encoding="UTF-8"?>
<svg id="Layer_1" data-name="Layer 1" xmlns="http://www.w3.org/2000/svg" viewBox="0 0 600 175.19">
  <defs>
    <style>
      .cls-1, .cls-2 {
        stroke-width: 0px;
      }

      .cls-2 {
        fill: #00c9d2;
      }
    </style>
  </defs>
  <g id="Artwork_2" data-name="Artwork 2">
    <g>
      <path class="cls-1" d="M576.53,62.49c-6.86,0-12.74,2.8-18.06,8.4.28-3.22.14-5.32.14-6.86h-19.32c0,4.06-.56,7.84-1.82,15.12l-1.04,5.88c-.16-12.56-10.05-22.82-25.43-22.82-7.87,0-15.56,2.86-21.3,7.85l3.52-6.03h-19.6l-14.42,28.14-4.48-28.14h-31.36l-3.92,3.78c-1.96-2.8-7.14-5.32-12.46-5.32-13.43,0-23.09,8.29-26.85,20.05l7.29-46.43h-20.16l-7.87,49.73c1.02-12.24-5.69-23.35-18.57-23.35-6.72,0-11.62,2.1-15.82,7.42,0-2.38-.14-4.34-.42-5.88h-17.78c0,4.06-.28,7.56-1.54,14.84l-10.78,60.2h20.16l5.18-28.98c3.5,2.24,8.68,3.22,11.2,3.22,14.08,0,24.02-9.1,27.36-21.77l-3.57,20.23h20.16l3.56-20.14c-.3,11.56,6.37,21.68,18.66,21.68,6.72,0,11.62-2.1,15.82-7.42,0,2.38.14,4.34.42,5.88h17.78c0-4.06.28-7.56,1.54-14.84l4.3-24.62,9.14,39.46-16.38,27.3h19.6l31.19-53.42c-.03.17-.08.33-.11.5-2.52,14.56,7.84,27.44,25.06,27.44,12.57,0,24.9-7.43,29.26-19.3l-3.08,17.48h20.16l3.92-21.84c1.4-8.12,6.02-11.48,9.66-11.48,3.08,0,5.6,1.96,4.76,6.44l-4.76,26.88h20.16l5.18-30.38c1.96-11.9-4.62-18.9-14.28-18.9ZM338.86,87.97c-1.26,7.14-5.04,11.62-9.94,11.62s-7.28-4.48-5.88-11.62c1.4-7.28,5.04-11.62,9.94-11.62s7.14,4.34,5.88,11.62ZM414.96,87.97c-1.4,7.28-5.04,11.62-9.94,11.62s-7.14-4.34-5.88-11.62c1.26-7.14,5.04-11.62,9.94-11.62s7.28,4.48,5.88,11.62ZM516.05,88.25c-1.68,9.52-6.02,11.62-9.52,11.62-4.2,0-7.84-2.8-6.16-12.32,1.68-9.52,5.88-11.62,9.52-11.62,4.2,0,7.84,2.94,6.16,12.32Z"/>
      <polygon class="cls-2" points="276.76 83.45 291.18 95.18 300.65 36.32 244.94 57.55 259.36 69.29 280.33 61.29 276.76 83.45"/>
    </g>
  </g>
  <g>
    <path class="cls-1" d="M8.85,104.31c.06-.47.18-1,.35-1.48.47-1.36.89-2.66,1.48-3.95,1.48-2.89,1.59-5.96,1.12-9.09-.3-1.89-.77-3.78-1.24-5.67-.41-1.59-.12-3.07.65-4.49.41-.77.94-1.48,1.53-2.13,1.77-2.01,4.01-3.3,6.43-4.31,1.06-.36,2.12-.71,2.77-1.71.35-.53,1.06-.59,1.59-.24.89.65,1.83.53,2.77.53,1.59-.06,3.13.06,4.6.71,3.19,1.36,4.37,3.84,3.48,7.2-.41,1.36-1.06,2.6-1.83,3.78-3.31,4.78-7.38,8.91-12.22,12.22-1.36.94-2.77,1.77-4.54,1.59-.89-.29-1.36.24-1.59,1-.18.53-.29,1-.47,1.48-.47,1.36-.89,2.71-1.36,4.01-.18.53-.47,1.06-.83,1.59-.41.59-1.06.77-1.77.53-.65-.24-1-.77-.94-1.59ZM14.46,90.21c.18-.12.35-.12.41-.24,1.83-3.3,3.42-6.67,4.9-10.15.24-.53.18-.94.06-1.42-.06.18-.12.47-.24.65-.3.41-.71.53-1.18.3s-.53-.65-.35-1.12c.12-.47.59-.83.3-1.53-1.83,1-3.36,2.24-4.54,3.84-.83,1.06-1.12,2.24-.89,3.54.47,2.07,1,4.07,1.53,6.14ZM17.47,93.93c5.13-3.54,9.33-7.97,12.75-13.16.18-.3.36-.59.53-.94.24-.77.53-1.53.77-2.3.24-.89-.06-1.65-.71-2.24-.53-.53-1.24-.77-2.01-.83-1.36-.06-2.77-.12-4.31.18-1.77,6.91-5.25,13.1-7.97,19.77.3-.18.65-.29.94-.47ZM19.89,78.29v.06-.06Z"/>
    <path class="cls-1" d="M34.88,98.94c-.18-1.06-.12-2.12.12-3.13.94-4.84,3.19-9.03,6.55-12.63.59-.59,1.18-1.12,1.95-1.48.83-.41,1.53-.35,2.3.06.35.18.71.47.65.83-.24,1.12.24,2.24.12,3.6-.12.83-.18,1.95-.47,3.01-.24.94.12.77,1.06.94,2.66.47,8.2.53,11.51-2.01.36-.3.77-.65,1.24-.89.59-.35,1.59,0,1.95.59.12.3.12.59-.06.83-.36.47-.77.94-1.18,1.3-3.13,2.77-10.62,3.48-14.81,2.72-.41-.12-.71.06-.89.47l-.71,1.59c-.71,1.65-1.59,3.19-2.83,4.49-.71.77-1.48,1.48-2.48,1.83-1.89.77-3.66-.12-4.01-2.12ZM39.13,97c1.3-1.48,2.06-3.25,2.83-5.02.59-1.36.59-2.66-.24-4.25-2.01,3.13-3.42,6.32-3.78,9.92.65.12.94-.3,1.18-.65Z"/>
    <path class="cls-1" d="M64.03,100.01c-.41-.89-.71-1.83-.65-2.77v-3.31c-.53-.24-.71.12-.94.41-1.42,1.71-2.83,3.42-4.25,5.08-.47.59-1,1.12-1.59,1.53-.77.53-1.65.47-2.3,0-.65-.47-.89-1.3-.47-2.18.35-.89.83-1.77,1.24-2.6,1.42-2.71,2.89-5.37,4.01-8.2.3-.83.59-1.65.94-2.48.3-.77.24-1.24-.59-1.59-.47-.18-.47-.71-.24-1.18.18-.47.35-.94.65-1.36.65-1.18,2.12-1.24,2.95-.24.41.59.53,1.18.59,1.89.12,1.36-.24,2.66-.59,3.95-.18.71-.41,1.36-.65,2.07-.18.59.06.41.29.18l1.06-1.06c.71-.71,1.59-.83,2.48-.59.94.29,1.42.83,1.42,1.77,0,.89-.12,1.77-.24,2.66-.24,1.77-.3,3.54-.24,5.31,0,.18.12.47.24.53.24.18.41,0,.53-.18.59-.83,1.24-1.65,1.77-2.6,2.24-4.13,4.19-8.44,5.96-12.87.47-1.18.89-2.36,1.36-3.54.24-.47.53-.88,1.12-.88.71,0,1.36.24,1.71.83.24.35.18.71.06,1.12-.53,1.53-.94,3.07-1.48,4.6-1.36,3.9-2.95,7.61-4.66,11.33-.89,1.77-1.89,3.54-3.31,4.96-1,.89-2.06,1.42-3.42,1.3-1.3-.12-2.24-.71-2.77-1.89Z"/>
    <path class="cls-1" d="M82.03,98.88c-.65-.77-1.48-2.36-.83-4.66,1.24-4.19,3.31-7.91,6.37-10.98,1.18-1.24,2.6-2.18,4.31-2.71.89-.3,1.71-.18,2.54.24,1.18.53,1.65,1.42,1.59,2.66-.12,1.06-.59,2.01-1.06,2.89-1.71,3.01-3.95,5.55-6.61,7.79-1.12.94-2.36,1.77-3.6,2.54-.53.29-.53.88,0,1.24.59.35,1.18.53,1.89.35.77-.18,1.59-.35,2.36-.65,4.43-1.71,10.56-5.55,14.16-8.62.59-.47,1.06-1.06,1.59-1.59.71-.71,1.36-.77,2.18-.3.41.3.65.89.41,1.36-.12.24-.3.53-.47.77-.71.77-1.36,1.59-2.13,2.24-3.54,3.13-9.56,6.96-13.93,8.73-1.18.53-2.48.94-4.07.94-1.71-.12-3.42-.77-4.72-2.24ZM84.92,93.1c.24.06.47-.12.71-.3,2.54-2.12,4.72-4.54,6.37-7.38.35-.65,1.06-1.24.65-2.18-.77.06-1.36.53-1.95,1-2.71,2.24-4.54,5.19-5.84,8.5-.06.12,0,.24.06.36Z"/>
    <path class="cls-1" d="M99.5,100.01c-.06-.65.06-1.3.36-1.95.71-1.53,1.36-3.13,2.06-4.66,1.3-2.71,2.66-5.43,3.95-8.2.47-1.06.94-2.12.94-3.36,0-.12.06-.29.12-.41.18-.88.65-1.36,1.24-1.3.94.06,1.59.65,1.65,1.53,0,.71-.06,1.48-.18,2.18-.06.59-.3,1.06-.47,1.65.36.24.53,0,.77-.24l2.3-2.66c1.71-2.01,4.9-.94,5.55,1.24.47,1.48.47,2.95.18,4.43-.12.65-.59,1-1.24,1.06-.83,0-1.48-.41-1.65-1.18-.06-.47-.06-.89-.12-1.36l-.18-1.06c0-.12-.18-.24-.24-.35-.53-.06-.77.41-1,.71-1.06,1.42-2.18,2.83-3.19,4.31-1.83,2.77-3.6,5.61-5.43,8.38-.53.77-1.12,1.53-1.71,2.3-.41.59-1.06.83-1.71.83-1.24,0-2.01-.71-2.01-1.89ZM109.24,85.66l-.06-.18v.06l.06.12Z"/>
    <path class="cls-1" d="M119.8,98.88c-.65-.77-1.48-2.36-.83-4.66,1.24-4.19,3.31-7.91,6.37-10.98,1.18-1.24,2.6-2.18,4.31-2.71.89-.3,1.71-.18,2.54.24,1.18.53,1.65,1.42,1.59,2.66-.12,1.06-.59,2.01-1.06,2.89-1.71,3.01-3.95,5.55-6.61,7.79-1.12.94-2.36,1.77-3.6,2.54-.53.29-.53.88,0,1.24.59.35,1.18.53,1.89.35.77-.18,1.59-.35,2.36-.65,4.43-1.71,10.56-5.55,14.16-8.62.59-.47,1.06-1.06,1.59-1.59.71-.71,1.36-.77,2.18-.3.41.3.65.89.41,1.36-.12.24-.3.53-.47.77-.71.77-1.36,1.59-2.13,2.24-3.54,3.13-9.56,6.96-13.93,8.73-1.18.53-2.48.94-4.07.94-1.71-.12-3.42-.77-4.72-2.24ZM122.69,93.1c.24.06.47-.12.71-.3,2.54-2.12,4.72-4.54,6.37-7.38.35-.65,1.06-1.24.65-2.18-.77.06-1.36.53-1.95,1-2.71,2.24-4.54,5.19-5.84,8.5-.06.12,0,.24.06.36Z"/>
    <path class="cls-1" d="M150.6,94.81c.18-.53.94-2.48,1.12-3.01,1.71-4.43-.18-1.48-.3-1.36-2.01,2.83-4.31,5.43-7.02,7.61-.83.71-1.71,1.12-2.83,1-1.36-.12-2.18-.83-2.42-2.18-.18-.77-.18-1.59.06-2.42.24-.77.47-1.53.83-2.3,1.3-3.07,2.95-5.96,5.02-8.62.71-.94,1.53-1.83,2.48-2.54,1.83-1.48,3.9-1.53,5.67-.18.24.18.47.35.89.59,1.59-2.6,3.31-5.13,4.54-7.91.53-1.06,1-2.12,1.59-3.19.59-1,1.12-1.18,1.95-.77,1,.47,1.18,1.06.77,2.24-.18.41-.35.77-.59,1.18-1.18,2.06-2.01,4.25-2.83,6.49-1.71,4.6-3.54,9.62-5.19,14.22-.29,1.18-.65,2.3-.65,3.48,0,1,.47,1.42,1.42,1,.83-.29,1.59-.71,2.36-1.18,4.13-2.36,7.85-5.31,11.15-8.74.41-.35.71-.77,1.12-1.06.71-.71,1.65-.53,2.3.29.18.24.24.53.06.83-.24.35-.53.71-.83,1.06-3.42,3.95-7.38,7.26-11.86,9.91-1,.65-2.12,1.12-3.25,1.42-.41.06-.89.18-1.3.18-2.77,0-5.31-1.59-4.25-6.08ZM143.4,94.87c2.95-2.77,5.43-5.84,7.79-9.09.59-.83.53-1.71.47-2.54-.06-.59-.59-.89-1.18-.59-.94.47-1.65,1.18-2.3,2.01-2.3,2.71-4.01,5.84-5.43,9.15-.18.41-.47.94-.12,1.42.35.06.53-.18.77-.35Z"/>
    <path class="cls-1" d="M182.12,98.59c.12-.59.41-1.24.65-1.83l3.9-8.03c1.95-3.9,3.84-7.85,5.49-11.86.89-2.3,1.65-4.6,2.12-7.02.12-.83.3-1.59-.35-2.3-.12-.12-.12-.41-.18-.59-.06-.77.65-1.48,1.42-1.3,1.18.29,1.83,1.06,2.01,2.18.18,1.18.12,2.36-.12,3.54-.47,2.6-1.24,5.19-2.24,7.61-1,2.36-2.06,4.6-3.07,6.91-.18.41-.53.77-.18,1.3.65-.47,1.36-.94,2.01-1.36.89-.59,1.77-1.06,2.77-1.36,2.89-.77,4.96,1.24,4.25,4.07-.29,1.18-.77,2.24-1.48,3.25-1,1.48-2.24,2.77-3.78,3.72-2.77,1.71-5.67,3.19-9.03,3.36-.36.06-.71.18-.94.47-.18.24-.35.47-.59.71-.65.59-1.3.71-2.01.3-.59-.41-.89-1-.65-1.77ZM195.04,90.8c.94-1,1.77-2.12,2.12-3.6-2.77.83-7.44,5.07-8.62,7.79,2.24-.65,4.84-2.36,6.49-4.19Z"/>
    <path class="cls-1" d="M201.95,113.99c0-.59.18-1.18.41-1.71.53-1.48,1.3-2.83,2.18-4.07,2.3-3.31,5.13-6.2,8.09-8.85.71-.59,1.3-1.24,2.06-1.77,1.36-.94,2.18-2.3,2.77-3.9.65-1.83,1.24-3.66,1.65-5.49.18-.65.35-1.3.06-2.01-.77.24-1.12.77-1.59,1.24-2.18,2.12-4.31,4.25-6.55,6.37-.94.94-1.95,1.77-3.01,2.6-.59.41-1.3.77-1.95,1.06-1.65.65-2.72.3-3.84-1.18-.12-.18-.77-.83.18-2.71.59-1.18,1.18-2.36,1.95-3.48,1.59-2.42,3.25-4.78,4.9-7.14.24-.35.47-.77.77-1.06.59-.59,1.06-.65,1.83-.3.65.35.83.83.41,1.48-.36.65-.77,1.24-1.18,1.89l-4.84,7.44c-.47.71-.94,1.36-1.06,2.18.3.35.53.06.71-.12.94-.77,1.83-1.48,2.72-2.3l7.14-7.02c.71-.71,1.53-1.42,2.3-2.07,1.83-1.65,4.43-.41,4.49,1.95,0,1.48-.06,2.95-.35,4.43-.12.71-.35,1.42-.47,2.12.71.18,1.06-.3,1.48-.59,2.01-1.36,4.07-2.6,6.32-3.6.65-.3,1.3-.47,1.95-.24.36.12.65.3.77.71.12.41,0,.77-.35,1-.47.3-1,.59-1.53.89-3.78,1.95-7.08,4.6-10.39,7.2-.65.53-1,1.24-1.42,1.95-2.12,3.95-4.43,7.73-7.2,11.21-.89,1.18-1.89,2.3-2.89,3.42-.83.83-1.71,1.59-2.83,2.07-.59.3-1.12.41-1.71.41-1.18-.06-1.95-.89-1.95-2.01ZM211.51,104.67c-2.12,2.06-3.84,4.07-5.25,6.26-.47.65-.94,1.3-1.12,2.3,2.24-1.71,5.14-5.49,6.37-8.56Z"/>
  </g>
</svg>